# xmcd
#
# Track frame offsets:
#	150
#	21975
#	39473
#	61310
#
# Disc length: 1050 seconds
#
# Revision: 1
# Processed by: cddbd v1.5PL3 Copyright (c) Steve Scherf et al.
# Submitted via: CDex 1.50Beta5
#
DISCID=2d041804
DTITLE=Every Little Thing - Grip!
DYEAR=2003
DGENRE=Rock
TTITLE0=Grip!
TTITLE1=ゆらゆら
TTITLE2=Grip!(Instrumental)
TTITLE3=ゆらゆら(Instrumental)
EXTD=
EXTT0=
EXTT1=
EXTT2=
EXTT3=
PLAYORDER=
